<mxfile host="app.diagrams.net" modified="2024-03-20T13:04:53.483Z" agent="Mozilla/5.0 (Windows NT 10.0; Win64; x64) AppleWebKit/537.36 (KHTML, like Gecko) Chrome/122.0.0.0 Safari/537.36" etag="F_fiLP2D_p34b8p_8Zv5" version="24.0.7" type="device">
  <diagram id="jzqUikOB7cKnNFgosL7M" name="Sayfa -1">
    <mxGraphModel dx="1706" dy="946" grid="1" gridSize="10" guides="1" tooltips="1" connect="1" arrows="1" fold="1" page="1" pageScale="1" pageWidth="1169" pageHeight="1654" math="0" shadow="0">
      <root>
        <mxCell id="0" />
        <mxCell id="1" parent="0" />
        <mxCell id="x-1Ze8IzKeIDdguvVKzz-1" value="Admin Network Diagram" style="text;strokeColor=none;fillColor=none;html=1;fontSize=24;fontStyle=1;verticalAlign=middle;align=center;" parent="1" vertex="1">
          <mxGeometry x="500" width="100" height="40" as="geometry" />
        </mxCell>
        <mxCell id="W5_C7NsbYN7OBKRjsMsF-1" style="edgeStyle=orthogonalEdgeStyle;rounded=0;orthogonalLoop=1;jettySize=auto;html=1;exitX=1;exitY=0.5;exitDx=0;exitDy=0;exitPerimeter=0;entryX=0;entryY=0.25;entryDx=0;entryDy=0;" parent="1" source="x-1Ze8IzKeIDdguvVKzz-2" target="x-1Ze8IzKeIDdguvVKzz-6" edge="1">
          <mxGeometry relative="1" as="geometry">
            <Array as="points">
              <mxPoint x="100" y="168" />
            </Array>
          </mxGeometry>
        </mxCell>
        <mxCell id="x-1Ze8IzKeIDdguvVKzz-2" value="" style="fontColor=#0066CC;verticalAlign=top;verticalLabelPosition=bottom;labelPosition=center;align=center;html=1;outlineConnect=0;fillColor=#CCCCCC;strokeColor=#6881B3;gradientColor=none;gradientDirection=north;strokeWidth=2;shape=mxgraph.networks.users;" parent="1" vertex="1">
          <mxGeometry x="10" y="120" width="90" height="100" as="geometry" />
        </mxCell>
        <mxCell id="W5_C7NsbYN7OBKRjsMsF-2" style="edgeStyle=orthogonalEdgeStyle;rounded=0;orthogonalLoop=1;jettySize=auto;html=1;exitX=1;exitY=0.25;exitDx=0;exitDy=0;entryX=0;entryY=0.5;entryDx=0;entryDy=0;" parent="1" source="x-1Ze8IzKeIDdguvVKzz-6" target="x-1Ze8IzKeIDdguvVKzz-15" edge="1">
          <mxGeometry relative="1" as="geometry">
            <Array as="points">
              <mxPoint x="270" y="165" />
            </Array>
          </mxGeometry>
        </mxCell>
        <mxCell id="x-1Ze8IzKeIDdguvVKzz-6" value="" style="rounded=0;whiteSpace=wrap;html=1;" parent="1" vertex="1">
          <mxGeometry x="220" y="100" width="50" height="270" as="geometry" />
        </mxCell>
        <mxCell id="x-1Ze8IzKeIDdguvVKzz-12" value="&lt;font style=&quot;font-size: 14px;&quot;&gt;Users&lt;/font&gt;" style="text;html=1;align=center;verticalAlign=middle;whiteSpace=wrap;rounded=0;" parent="1" vertex="1">
          <mxGeometry x="25" y="220" width="60" height="30" as="geometry" />
        </mxCell>
        <mxCell id="W5_C7NsbYN7OBKRjsMsF-3" style="edgeStyle=orthogonalEdgeStyle;rounded=0;orthogonalLoop=1;jettySize=auto;html=1;exitX=1;exitY=0;exitDx=0;exitDy=0;entryX=0;entryY=0.5;entryDx=0;entryDy=0;" parent="1" source="x-1Ze8IzKeIDdguvVKzz-15" target="V5ta_4rXmdPtWZPabq8_-3" edge="1">
          <mxGeometry relative="1" as="geometry">
            <Array as="points">
              <mxPoint x="485" y="140" />
            </Array>
          </mxGeometry>
        </mxCell>
        <mxCell id="W5_C7NsbYN7OBKRjsMsF-4" style="edgeStyle=orthogonalEdgeStyle;rounded=0;orthogonalLoop=1;jettySize=auto;html=1;exitX=0.5;exitY=1;exitDx=0;exitDy=0;entryX=0;entryY=0.75;entryDx=0;entryDy=0;" parent="1" source="x-1Ze8IzKeIDdguvVKzz-15" target="V5ta_4rXmdPtWZPabq8_-5" edge="1">
          <mxGeometry relative="1" as="geometry" />
        </mxCell>
        <mxCell id="W5_C7NsbYN7OBKRjsMsF-5" style="edgeStyle=orthogonalEdgeStyle;rounded=0;orthogonalLoop=1;jettySize=auto;html=1;exitX=1;exitY=1;exitDx=0;exitDy=0;entryX=0;entryY=0.75;entryDx=0;entryDy=0;" parent="1" source="x-1Ze8IzKeIDdguvVKzz-15" target="V5ta_4rXmdPtWZPabq8_-4" edge="1">
          <mxGeometry relative="1" as="geometry">
            <Array as="points">
              <mxPoint x="485" y="345" />
            </Array>
          </mxGeometry>
        </mxCell>
        <mxCell id="W5_C7NsbYN7OBKRjsMsF-6" style="edgeStyle=orthogonalEdgeStyle;rounded=0;orthogonalLoop=1;jettySize=auto;html=1;exitX=1;exitY=0.5;exitDx=0;exitDy=0;entryX=0;entryY=0.5;entryDx=0;entryDy=0;" parent="1" source="x-1Ze8IzKeIDdguvVKzz-15" target="V5ta_4rXmdPtWZPabq8_-1" edge="1">
          <mxGeometry relative="1" as="geometry">
            <Array as="points">
              <mxPoint x="500" y="235" />
            </Array>
          </mxGeometry>
        </mxCell>
        <mxCell id="x-1Ze8IzKeIDdguvVKzz-15" value="" style="ellipse;whiteSpace=wrap;html=1;" parent="1" vertex="1">
          <mxGeometry x="400" y="125" width="100" height="80" as="geometry" />
        </mxCell>
        <mxCell id="x-1Ze8IzKeIDdguvVKzz-16" value="&lt;span style=&quot;color: rgb(0, 0, 0); font-family: Helvetica; font-size: 14px; font-style: normal; font-variant-ligatures: normal; font-variant-caps: normal; font-weight: 400; letter-spacing: normal; orphans: 2; text-indent: 0px; text-transform: none; widows: 2; word-spacing: 0px; -webkit-text-stroke-width: 0px; white-space: normal; background-color: rgb(251, 251, 251); text-decoration-thickness: initial; text-decoration-style: initial; text-decoration-color: initial; float: none; display: inline !important;&quot;&gt;Nginx&lt;/span&gt;" style="text;whiteSpace=wrap;html=1;align=center;" parent="1" vertex="1">
          <mxGeometry x="412.5" y="150" width="75" height="40" as="geometry" />
        </mxCell>
        <mxCell id="x-1Ze8IzKeIDdguvVKzz-22" value="" style="fontColor=#0066CC;verticalAlign=top;verticalLabelPosition=bottom;labelPosition=center;align=center;html=1;outlineConnect=0;fillColor=#CCCCCC;strokeColor=#6881B3;gradientColor=none;gradientDirection=north;strokeWidth=2;shape=mxgraph.networks.storage;" parent="1" vertex="1">
          <mxGeometry x="940" y="110" width="130" height="100" as="geometry" />
        </mxCell>
        <mxCell id="x-1Ze8IzKeIDdguvVKzz-25" value="&lt;font style=&quot;font-size: 14px;&quot;&gt;Card Database&lt;/font&gt;" style="text;html=1;align=center;verticalAlign=middle;resizable=0;points=[];autosize=1;strokeColor=none;fillColor=none;" parent="1" vertex="1">
          <mxGeometry x="940" y="110" width="120" height="30" as="geometry" />
        </mxCell>
        <mxCell id="bCIvtF9gPDWzB0t_XXlc-1" value="&lt;font style=&quot;font-size: 14px;&quot;&gt;Cloudflare&amp;nbsp;&lt;/font&gt;" style="text;html=1;align=center;verticalAlign=middle;whiteSpace=wrap;rounded=0;" parent="1" vertex="1">
          <mxGeometry x="230" y="380" width="60" height="30" as="geometry" />
        </mxCell>
        <mxCell id="V5ta_4rXmdPtWZPabq8_-1" value="Admin Api Service 2" style="rounded=0;whiteSpace=wrap;html=1;" parent="1" vertex="1">
          <mxGeometry x="630" y="205" width="80" height="60" as="geometry" />
        </mxCell>
        <mxCell id="V5ta_4rXmdPtWZPabq8_-3" value="Admin Api Service 1" style="rounded=0;whiteSpace=wrap;html=1;" parent="1" vertex="1">
          <mxGeometry x="630" y="110" width="80" height="60" as="geometry" />
        </mxCell>
        <mxCell id="V5ta_4rXmdPtWZPabq8_-4" value="Admin&amp;nbsp; Frontend Api Service 1" style="rounded=0;whiteSpace=wrap;html=1;" parent="1" vertex="1">
          <mxGeometry x="630" y="300" width="80" height="60" as="geometry" />
        </mxCell>
        <mxCell id="V5ta_4rXmdPtWZPabq8_-5" value="Admin&amp;nbsp; Frontend Api Service 2" style="rounded=0;whiteSpace=wrap;html=1;" parent="1" vertex="1">
          <mxGeometry x="630" y="410" width="80" height="60" as="geometry" />
        </mxCell>
        <mxCell id="W5_C7NsbYN7OBKRjsMsF-7" style="edgeStyle=orthogonalEdgeStyle;rounded=0;orthogonalLoop=1;jettySize=auto;html=1;exitX=1;exitY=0.5;exitDx=0;exitDy=0;entryX=0;entryY=0.5;entryDx=0;entryDy=0;entryPerimeter=0;" parent="1" source="V5ta_4rXmdPtWZPabq8_-3" target="x-1Ze8IzKeIDdguvVKzz-22" edge="1">
          <mxGeometry relative="1" as="geometry">
            <Array as="points">
              <mxPoint x="710" y="160" />
            </Array>
          </mxGeometry>
        </mxCell>
        <mxCell id="W5_C7NsbYN7OBKRjsMsF-8" style="edgeStyle=orthogonalEdgeStyle;rounded=0;orthogonalLoop=1;jettySize=auto;html=1;exitX=1;exitY=0.5;exitDx=0;exitDy=0;entryX=0.5;entryY=1;entryDx=0;entryDy=0;entryPerimeter=0;" parent="1" source="V5ta_4rXmdPtWZPabq8_-1" target="x-1Ze8IzKeIDdguvVKzz-22" edge="1">
          <mxGeometry relative="1" as="geometry" />
        </mxCell>
      </root>
    </mxGraphModel>
  </diagram>
</mxfile>
